<?xml version="1.0" encoding="utf-8"?>
<svg version="1.1" id="Layer_1" xmlns="http://www.w3.org/2000/svg" xmlns:xlink="http://www.w3.org/1999/xlink" 
	 viewBox="0 -1 93 93"  xml:space="preserve" fill="#ffffff">
<path d="M80.6-0.5C80.3-0.8,79.9-1,79.4-1c-0.4,0-0.8,0.1-1.1,0.5c0,0-21.8,21.8-22.5,22.5c-0.3,0.3-0.5,0.8-0.5,1.2
	c0,1.1,0.9,2.1,7.2,7.8c1.2,1,2.5,2.2,2.8,2.6c1.9,2.3-2.6,7.7-6.7,11.9L44.4,59.6c-6,6-10,8.2-12.1,6.7c-0.4-0.3-1.9-2-3.2-3.4
	c-5-5.5-6-6.4-7.1-6.4c-0.4,0-0.9,0.2-1.2,0.5C20.2,57.6,0.5,77.3,0.5,77.3C0.2,77.6,0,78,0,78.4c0,0.4,0.2,0.8,0.5,1.1
	c10,8.7,18.3,12.6,27,12.6c1,0,2-0.1,3.1-0.2C41.1,91,91.8,40.2,92.8,29.6C93.9,19.6,90.2,10.6,80.6-0.5z"/>
</svg>
